  0
SECTION
  2
BLOCKS
  0
ENDSEC
  0
SECTION
  2
ENTITIES
  0
LINE
  8
0
 10
-96.2966
 20
-76.6704
 11
-93.4857
 21
-82.2479
  0
LINE
  8
0
 10
-93.4857
 20
-82.2479
 11
-91.3721
 21
-86.4419
  0
LINE
  8
0
 10
-91.3721
 20
-86.4419
 11
-91.3259
 21
-86.4574
  0
LINE
  8
0
 10
-91.3259
 20
-86.4574
 11
-91.3097
 21
-86.4629
  0
LINE
  8
0
 10
-91.3097
 20
-86.4629
 11
-82.9413
 21
-89.2822
  0
LINE
  8
0
 10
-82.9413
 20
-89.2822
 11
-75.3633
 21
-91.8352
  0
LINE
  8
0
 10
-75.3633
 20
-91.8352
 11
-75.3184
 21
-91.8503
  0
LINE
  8
0
 10
-75.3184
 20
-91.8503
 11
-70.4823
 21
-89.6275
  0
LINE
  8
0
 10
-70.4823
 20
-89.6275
 11
-70.482
 21
-89.6274
  0
LINE
  8
0
 10
-70.482
 20
-89.6274
 11
-65.1336
 21
-87.1692
  0
LINE
  8
0
 10
-65.1336
 20
-87.1692
 11
-65.1167
 21
-87.1228
  0
LINE
  8
0
 10
-65.1167
 20
-87.1228
 11
-65.1007
 21
-87.0788
  0
LINE
  8
0
 10
-65.1007
 20
-87.0788
 11
-62.8961
 21
-81.0216
  0
LINE
  8
0
 10
-62.8961
 20
-81.0216
 11
-59.5773
 21
-71.9035
  0
LINE
  8
0
 10
-59.5773
 20
-71.9035
 11
-58.9284
 21
-71.5837
  0
LINE
  8
0
 10
-58.9284
 20
-71.5837
 11
-58.4392
 21
-71.9333
  0
LINE
  8
0
 10
-58.4392
 20
-71.9333
 11
-57.5251
 21
-72.5865
  0
LINE
  8
0
 10
-57.5251
 20
-72.5865
 11
-57.4748
 21
-72.6224
  0
LINE
  8
0
 10
-57.4748
 20
-72.6224
 11
-57.4748
 21
-72.6224
  0
LINE
  8
0
 10
-57.4748
 20
-72.6224
 11
-57.4378
 21
-72.5767
  0
LINE
  8
0
 10
-57.4378
 20
-72.5767
 11
-54.3403
 21
-68.7516
  0
LINE
  8
0
 10
-54.3403
 20
-68.7516
 11
-47.4807
 21
-60.2807
  0
LINE
  8
0
 10
-47.4807
 20
-60.2807
 11
-46.7113
 21
-60.6045
  0
LINE
  8
0
 10
-46.7113
 20
-60.6045
 11
-44.9344
 21
-61.3523
  0
LINE
  8
0
 10
-44.9344
 20
-61.3523
 11
-44.9238
 21
-61.3655
  0
LINE
  8
0
 10
-44.9238
 20
-61.3655
 11
-44.9055
 21
-61.3885
  0
LINE
  8
0
 10
-44.9055
 20
-61.3885
 11
-44.8633
 21
-61.4415
  0
LINE
  8
0
 10
-44.8633
 20
-61.4415
 11
-44.8633
 21
-61.4415
  0
LINE
  8
0
 10
-44.8633
 20
-61.4415
 11
-44.84
 21
-61.4268
  0
LINE
  8
0
 10
-44.84
 20
-61.4268
 11
-44.84
 21
-61.4268
  0
LINE
  8
0
 10
-44.84
 20
-61.4268
 11
-44.7861
 21
-61.3927
  0
LINE
  8
0
 10
-44.7861
 20
-61.3927
 11
-35.7276
 21
-55.5725
  0
LINE
  8
0
 10
-35.7276
 20
-55.5725
 11
-35.7273
 21
-55.5723
  0
LINE
  8
0
 10
-35.7273
 20
-55.5723
 11
-31.884
 21
-53.103
  0
LINE
  8
0
 10
-31.884
 20
-53.103
 11
-31.8134
 21
-53.1917
  0
LINE
  8
0
 10
-31.8134
 20
-53.1917
 11
-31.0123
 21
-53.8169
  0
LINE
  8
0
 10
-31.0123
 20
-53.8169
 11
-28.5731
 21
-55.7205
  0
LINE
  8
0
 10
-28.5731
 20
-55.7205
 11
-28.5731
 21
-55.7205
  0
LINE
  8
0
 10
-28.5731
 20
-55.7205
 11
-28.5622
 21
-55.7582
  0
LINE
  8
0
 10
-28.5622
 20
-55.7582
 11
-28.5428
 21
-55.8255
  0
LINE
  8
0
 10
-28.5428
 20
-55.8255
 11
-28.4777
 21
-55.822
  0
LINE
  8
0
 10
-28.4777
 20
-55.822
 11
-28.4563
 21
-55.8209
  0
LINE
  8
0
 10
-28.4563
 20
-55.8209
 11
-26.5902
 21
-55.7095
  0
LINE
  8
0
 10
-26.5902
 20
-55.7095
 11
-25.4874
 21
-57.0923
  0
LINE
  8
0
 10
-25.4874
 20
-57.0923
 11
-23.8135
 21
-57.8984
  0
LINE
  8
0
 10
-23.8135
 20
-57.8984
 11
-23.7821
 21
-57.9136
  0
LINE
  8
0
 10
-23.7821
 20
-57.9136
 11
-21.8893
 21
-57.9136
  0
LINE
  8
0
 10
-21.8893
 20
-57.9136
 11
-21.8579
 21
-57.8984
  0
LINE
  8
0
 10
-21.8579
 20
-57.8984
 11
-20.184
 21
-57.0923
  0
LINE
  8
0
 10
-20.184
 20
-57.0923
 11
-19.0256
 21
-55.6397
  0
LINE
  8
0
 10
-19.0256
 20
-55.6397
 11
-19.0039
 21
-55.6125
  0
LINE
  8
0
 10
-19.0039
 20
-55.6125
 11
-18.9961
 21
-55.5785
  0
LINE
  8
0
 10
-18.9961
 20
-55.5785
 11
-18.9215
 21
-55.2516
  0
LINE
  8
0
 10
-18.9215
 20
-55.2516
 11
-17.4764
 21
-55.1653
  0
LINE
  8
0
 10
-17.4764
 20
-55.1653
 11
-13.9559
 21
-54.9551
  0
LINE
  8
0
 10
-13.9559
 20
-54.9551
 11
-1.9729
 21
-59.2568
  0
LINE
  8
0
 10
-1.9729
 20
-59.2568
 11
1.11487
 21
-60.3653
  0
LINE
  8
0
 10
1.11487
 20
-60.3653
 11
7.06298
 21
-60.3653
  0
LINE
  8
0
 10
7.06298
 20
-60.3653
 11
7.10371
 21
-60.3653
  0
LINE
  8
0
 10
7.10371
 20
-60.3653
 11
18.1042
 21
-60.3653
  0
LINE
  8
0
 10
18.1042
 20
-60.3653
 11
19.2578
 21
-59.2321
  0
LINE
  8
0
 10
19.2578
 20
-59.2321
 11
19.8859
 21
-58.6153
  0
LINE
  8
0
 10
19.8859
 20
-58.6153
 11
21.9563
 21
-53.3934
  0
LINE
  8
0
 10
21.9563
 20
-53.3934
 11
22.5928
 21
-51.7884
  0
LINE
  8
0
 10
22.5928
 20
-51.7884
 11
24.2099
 21
-51.7884
  0
LINE
  8
0
 10
24.2099
 20
-51.7884
 11
31.2624
 21
-51.7884
  0
LINE
  8
0
 10
31.2624
 20
-51.7884
 11
36.4453
 21
-51.7884
  0
LINE
  8
0
 10
36.4453
 20
-51.7884
 11
43.7902
 21
-51.7884
  0
LINE
  8
0
 10
43.7902
 20
-51.7884
 11
45.0523
 21
-52.3962
  0
LINE
  8
0
 10
45.0523
 20
-52.3962
 11
45.0837
 21
-52.4113
  0
LINE
  8
0
 10
45.0837
 20
-52.4113
 11
46.9765
 21
-52.4113
  0
LINE
  8
0
 10
46.9765
 20
-52.4113
 11
47.0079
 21
-52.3962
  0
LINE
  8
0
 10
47.0079
 20
-52.3962
 11
48.27
 21
-51.7884
  0
LINE
  8
0
 10
48.27
 20
-51.7884
 11
50.2089
 21
-51.7884
  0
LINE
  8
0
 10
50.2089
 20
-51.7884
 11
51.6553
 21
-51.7884
  0
LINE
  8
0
 10
51.6553
 20
-51.7884
 11
51.7956
 21
-51.7026
  0
LINE
  8
0
 10
51.7956
 20
-51.7026
 11
53.1373
 21
-50.8825
  0
LINE
  8
0
 10
53.1373
 20
-50.8825
 11
53.5979
 21
-44.173
  0
LINE
  8
0
 10
53.5979
 20
-44.173
 11
53.6677
 21
-43.1551
  0
LINE
  8
0
 10
53.6677
 20
-43.1551
 11
53.6993
 21
-41.0048
  0
LINE
  8
0
 10
53.6993
 20
-41.0048
 11
53.7414
 21
-38.136
  0
LINE
  8
0
 10
53.7414
 20
-38.136
 11
54.3626
 21
-31.6263
  0
LINE
  8
0
 10
54.3626
 20
-31.6263
 11
54.0681
 21
-25.9809
  0
LINE
  8
0
 10
54.0681
 20
-25.9809
 11
53.9325
 21
-23.3079
  0
LINE
  8
0
 10
53.9325
 20
-23.3079
 11
53.785
 21
-20.4
  0
LINE
  8
0
 10
53.785
 20
-20.4
 11
53.785
 21
-3.6
  0
LINE
  8
0
 10
53.785
 20
-3.6
 11
53.9325
 21
-0.692058
  0
LINE
  8
0
 10
53.9325
 20
-0.692058
 11
54.0681
 21
1.98093
  0
LINE
  8
0
 10
54.0681
 20
1.98093
 11
54.3626
 21
7.62633
  0
LINE
  8
0
 10
54.3626
 20
7.62633
 11
53.7414
 21
14.136
  0
LINE
  8
0
 10
53.7414
 20
14.136
 11
53.6993
 21
17.0048
  0
LINE
  8
0
 10
53.6993
 20
17.0048
 11
53.6677
 21
19.1551
  0
LINE
  8
0
 10
53.6677
 20
19.1551
 11
53.5487
 21
21.551
  0
LINE
  8
0
 10
53.5487
 20
21.551
 11
53.8122
 21
23.204
  0
LINE
  8
0
 10
53.8122
 20
23.204
 11
53.8218
 21
23.2979
  0
LINE
  8
0
 10
53.8218
 20
23.2979
 11
53.8233
 21
23.3247
  0
LINE
  8
0
 10
53.8233
 20
23.3247
 11
53.751
 21
23.4576
  0
LINE
  8
0
 10
53.751
 20
23.4576
 11
53.3865
 21
23.9242
  0
LINE
  8
0
 10
53.3865
 20
23.9242
 11
53.8357
 21
26.8836
  0
LINE
  8
0
 10
53.8357
 20
26.8836
 11
53.7625
 21
28.7177
  0
LINE
  8
0
 10
53.7625
 20
28.7177
 11
54.9221
 21
39.687
  0
LINE
  8
0
 10
54.9221
 20
39.687
 11
54.9221
 21
39.687
  0
LINE
  8
0
 10
54.9221
 20
39.687
 11
55.0453
 21
42.395
  0
LINE
  8
0
 10
55.0453
 20
42.395
 11
55.2375
 21
46.6153
  0
LINE
  8
0
 10
55.2375
 20
46.6153
 11
55.2375
 21
46.6153
  0
LINE
  8
0
 10
55.2375
 20
46.6153
 11
55.2375
 21
46.6153
  0
LINE
  8
0
 10
55.2375
 20
46.6153
 11
54.4982
 21
47.5889
  0
LINE
  8
0
 10
54.4982
 20
47.5889
 11
53.9087
 21
48.3653
  0
LINE
  8
0
 10
53.9087
 20
48.3653
 11
53.5046
 21
48.3653
  0
LINE
  8
0
 10
53.5046
 20
48.3653
 11
53.4047
 21
48.4905
  0
LINE
  8
0
 10
53.4047
 20
48.4905
 11
51.7308
 21
49.2967
  0
LINE
  8
0
 10
51.7308
 20
49.2967
 11
51.6994
 21
49.3118
  0
LINE
  8
0
 10
51.6994
 20
49.3118
 11
49.8066
 21
49.3118
  0
LINE
  8
0
 10
49.8066
 20
49.3118
 11
49.7752
 21
49.2967
  0
LINE
  8
0
 10
49.7752
 20
49.2967
 11
48.1013
 21
48.4905
  0
LINE
  8
0
 10
48.1013
 20
48.4905
 11
48.0014
 21
48.3653
  0
LINE
  8
0
 10
48.0014
 20
48.3653
 11
47.1305
 21
48.3653
  0
LINE
  8
0
 10
47.1305
 20
48.3653
 11
38.6647
 21
48.3653
  0
LINE
  8
0
 10
38.6647
 20
48.3653
 11
36.7991
 21
48.3653
  0
LINE
  8
0
 10
36.7991
 20
48.3653
 11
35.578
 21
48.3653
  0
LINE
  8
0
 10
35.578
 20
48.3653
 11
26.6965
 21
48.3653
  0
LINE
  8
0
 10
26.6965
 20
48.3653
 11
21.8224
 21
48.3653
  0
LINE
  8
0
 10
21.8224
 20
48.3653
 11
20.8773
 21
50.238
  0
LINE
  8
0
 10
20.8773
 20
50.238
 11
16.6498
 21
58.6153
  0
LINE
  8
0
 10
16.6498
 20
58.6153
 11
16.0694
 21
59.1854
  0
LINE
  8
0
 10
16.0694
 20
59.1854
 11
14.8682
 21
60.3653
  0
LINE
  8
0
 10
14.8682
 20
60.3653
 11
10.3414
 21
60.3653
  0
LINE
  8
0
 10
10.3414
 20
60.3653
 11
9.76155
 21
61.0923
  0
LINE
  8
0
 10
9.76155
 20
61.0923
 11
8.08762
 21
61.8984
  0
LINE
  8
0
 10
8.08762
 20
61.8984
 11
8.05623
 21
61.9136
  0
LINE
  8
0
 10
8.05623
 20
61.9136
 11
6.16346
 21
61.9136
  0
LINE
  8
0
 10
6.16346
 20
61.9136
 11
6.13206
 21
61.8984
  0
LINE
  8
0
 10
6.13206
 20
61.8984
 11
4.45813
 21
61.0923
  0
LINE
  8
0
 10
4.45813
 20
61.0923
 11
3.87831
 21
60.3653
  0
LINE
  8
0
 10
3.87831
 20
60.3653
 11
1.19577
 21
60.3653
  0
LINE
  8
0
 10
1.19577
 20
60.3653
 11
-2.47487
 21
62.4895
  0
LINE
  8
0
 10
-2.47487
 20
62.4895
 11
-2.47496
 21
62.4896
  0
LINE
  8
0
 10
-2.47496
 20
62.4896
 11
-3.67713
 21
63.1853
  0
LINE
  8
0
 10
-3.67713
 20
63.1853
 11
-3.67713
 21
63.1853
  0
LINE
  8
0
 10
-3.67713
 20
63.1853
 11
-13.1899
 21
63.1853
  0
LINE
  8
0
 10
-13.1899
 20
63.1853
 11
-13.2149
 21
63.1853
  0
LINE
  8
0
 10
-13.2149
 20
63.1853
 11
-16.5072
 21
63.1853
  0
LINE
  8
0
 10
-16.5072
 20
63.1853
 11
-16.5334
 21
63.1161
  0
LINE
  8
0
 10
-16.5334
 20
63.1161
 11
-16.54
 21
63.0986
  0
LINE
  8
0
 10
-16.54
 20
63.0986
 11
-16.7357
 21
62.5819
  0
LINE
  8
0
 10
-16.7357
 20
62.5819
 11
-17.5173
 21
60.5184
  0
LINE
  8
0
 10
-17.5173
 20
60.5184
 11
-17.5241
 21
60.5006
  0
LINE
  8
0
 10
-17.5241
 20
60.5006
 11
-17.5007
 21
60.3653
  0
LINE
  8
0
 10
-17.5007
 20
60.3653
 11
-25.5217
 21
60.3653
  0
LINE
  8
0
 10
-25.5217
 20
60.3653
 11
-25.537
 21
60.3653
  0
LINE
  8
0
 10
-25.537
 20
60.3653
 11
-27.651
 21
60.3653
  0
LINE
  8
0
 10
-27.651
 20
60.3653
 11
-29.252
 21
60.3653
  0
LINE
  8
0
 10
-29.252
 20
60.3653
 11
-29.2626
 21
60.3653
  0
LINE
  8
0
 10
-29.2626
 20
60.3653
 11
-29.533
 21
60.3653
  0
LINE
  8
0
 10
-29.533
 20
60.3653
 11
-38.6345
 21
60.3653
  0
LINE
  8
0
 10
-38.6345
 20
60.3653
 11
-38.6453
 21
60.3653
  0
LINE
  8
0
 10
-38.6453
 20
60.3653
 11
-40.1699
 21
60.3653
  0
LINE
  8
0
 10
-40.1699
 20
60.3653
 11
-40.1776
 21
60.3653
  0
LINE
  8
0
 10
-40.1776
 20
60.3653
 11
-41.3378
 21
60.0386
  0
LINE
  8
0
 10
-41.3378
 20
60.0386
 11
-48.6249
 21
57.987
  0
LINE
  8
0
 10
-48.6249
 20
57.987
 11
-56.6249
 21
49.987
  0
LINE
  8
0
 10
-56.6249
 20
49.987
 11
-57.6034
 21
47.8064
  0
LINE
  8
0
 10
-57.6034
 20
47.8064
 11
-58.163
 21
46.5591
  0
LINE
  8
0
 10
-58.163
 20
46.5591
 11
-59.5295
 21
45.901
  0
LINE
  8
0
 10
-59.5295
 20
45.901
 11
-60.6879
 21
44.4484
  0
LINE
  8
0
 10
-60.6879
 20
44.4484
 11
-60.7096
 21
44.4212
  0
LINE
  8
0
 10
-60.7096
 20
44.4212
 11
-60.7174
 21
44.3872
  0
LINE
  8
0
 10
-60.7174
 20
44.3872
 11
-61.1308
 21
42.5758
  0
LINE
  8
0
 10
-61.1308
 20
42.5758
 11
-60.7328
 21
40.8318
  0
LINE
  8
0
 10
-60.7328
 20
40.8318
 11
-63.2307
 21
35.2646
  0
LINE
  8
0
 10
-63.2307
 20
35.2646
 11
-64.5923
 21
31.0347
  0
LINE
  8
0
 10
-64.5923
 20
31.0347
 11
-64.8291
 21
30.2992
  0
LINE
  8
0
 10
-64.8291
 20
30.2992
 11
-65.3676
 21
27.7129
  0
LINE
  8
0
 10
-65.3676
 20
27.7129
 11
-68.2484
 21
13.8785
  0
LINE
  8
0
 10
-68.2484
 20
13.8785
 11
-68.7077
 21
9.38926
  0
LINE
  8
0
 10
-68.7077
 20
9.38926
 11
-68.7936
 21
8.54999
  0
LINE
  8
0
 10
-68.7936
 20
8.54999
 11
-68.7936
 21
-8.54999
  0
LINE
  8
0
 10
-68.7936
 20
-8.54999
 11
-68.7077
 21
-9.38926
  0
LINE
  8
0
 10
-68.7077
 20
-9.38926
 11
-68.2484
 21
-13.8785
  0
LINE
  8
0
 10
-68.2484
 20
-13.8785
 11
-65.3676
 21
-27.7129
  0
LINE
  8
0
 10
-65.3676
 20
-27.7129
 11
-64.8459
 21
-30.2182
  0
LINE
  8
0
 10
-64.8459
 20
-30.2182
 11
-67.6925
 21
-33.4121
  0
LINE
  8
0
 10
-67.6925
 20
-33.4121
 11
-67.6927
 21
-33.4123
  0
LINE
  8
0
 10
-67.6927
 20
-33.4123
 11
-72.7961
 21
-39.1383
  0
LINE
  8
0
 10
-72.7961
 20
-39.1383
 11
-73.0295
 21
-39.2507
  0
LINE
  8
0
 10
-73.0295
 20
-39.2507
 11
-73.5891
 21
-39.9524
  0
LINE
  8
0
 10
-73.5891
 20
-39.9524
 11
-73.6416
 21
-39.9801
  0
LINE
  8
0
 10
-73.6416
 20
-39.9801
 11
-73.6587
 21
-40.0012
  0
LINE
  8
0
 10
-73.6587
 20
-40.0012
 11
-73.6587
 21
-40.0012
  0
LINE
  8
0
 10
-73.6587
 20
-40.0012
 11
-73.7007
 21
-40.0531
  0
LINE
  8
0
 10
-73.7007
 20
-40.0531
 11
-73.7118
 21
-40.1062
  0
LINE
  8
0
 10
-73.7118
 20
-40.1062
 11
-74.1623
 21
-40.6711
  0
LINE
  8
0
 10
-74.1623
 20
-40.6711
 11
-74.5878
 21
-41.1486
  0
LINE
  8
0
 10
-74.5878
 20
-41.1486
 11
-74.6296
 21
-41.2002
  0
LINE
  8
0
 10
-74.6296
 20
-41.2002
 11
-74.6296
 21
-41.2002
  0
LINE
  8
0
 10
-74.6296
 20
-41.2002
 11
-74.6469
 21
-41.2216
  0
LINE
  8
0
 10
-74.6469
 20
-41.2216
 11
-74.6924
 21
-41.4406
  0
LINE
  8
0
 10
-74.6924
 20
-41.4406
 11
-74.962
 21
-41.7686
  0
LINE
  8
0
 10
-74.962
 20
-41.7686
 11
-75.0609
 21
-41.7328
  0
LINE
  8
0
 10
-75.0609
 20
-41.7328
 11
-75.0609
 21
-41.7328
  0
LINE
  8
0
 10
-75.0609
 20
-41.7328
 11
-75.0784
 21
-41.7544
  0
LINE
  8
0
 10
-75.0784
 20
-41.7544
 11
-81.1559
 21
-49.2595
  0
LINE
  8
0
 10
-81.1559
 20
-49.2595
 11
-81.1561
 21
-49.2597
  0
LINE
  8
0
 10
-81.1561
 20
-49.2597
 11
-83.6358
 21
-52.3219
  0
LINE
  8
0
 10
-83.6358
 20
-52.3219
 11
-88.2327
 21
-57.5436
  0
LINE
  8
0
 10
-88.2327
 20
-57.5436
 11
-88.2329
 21
-57.5438
  0
LINE
  8
0
 10
-88.2329
 20
-57.5438
 11
-90.6654
 21
-60.307
  0
LINE
  8
0
 10
-90.6654
 20
-60.307
 11
-93.965
 21
-69.3725
  0
LINE
  8
0
 10
-93.965
 20
-69.3725
 11
-96.2216
 21
-75.5726
  0
LINE
  8
0
 10
-96.2216
 20
-75.5726
 11
-96.2381
 21
-75.6178
  0
LINE
  8
0
 10
-96.2381
 20
-75.6178
 11
-96.2381
 21
-75.6178
  0
LINE
  8
0
 10
-96.2381
 20
-75.6178
 11
-96.2545
 21
-75.663
  0
LINE
  8
0
 10
-96.2545
 20
-75.663
 11
-96.2755
 21
-76.1662
  0
LINE
  8
0
 10
-96.2755
 20
-76.1662
 11
-96.2966
 21
-76.6704
  0
LINE
  8
0
 10
-93.1057
 20
-76.9329
 11
-91.3391
 21
-72.0791
  0
LINE
  8
0
 10
-91.3391
 20
-72.0791
 11
-87.8129
 21
-62.391
  0
LINE
  8
0
 10
-87.8129
 20
-62.391
 11
-83.7674
 21
-57.9737
  0
LINE
  8
0
 10
-83.7674
 20
-57.9737
 11
-81.476
 21
-55.4717
  0
LINE
  8
0
 10
-81.476
 20
-55.4717
 11
-74.5831
 21
-47.0852
  0
LINE
  8
0
 10
-74.5831
 20
-47.0852
 11
-73.3153
 21
-45.5426
  0
LINE
  8
0
 10
-73.3153
 20
-45.5426
 11
-73.0295
 21
-45.901
  0
LINE
  8
0
 10
-73.0295
 20
-45.901
 11
-71.3556
 21
-46.7071
  0
LINE
  8
0
 10
-71.3556
 20
-46.7071
 11
-71.3242
 21
-46.7222
  0
LINE
  8
0
 10
-71.3242
 20
-46.7222
 11
-69.4314
 21
-46.7222
  0
LINE
  8
0
 10
-69.4314
 20
-46.7222
 11
-69.4
 21
-46.7071
  0
LINE
  8
0
 10
-69.4
 20
-46.7071
 11
-67.7261
 21
-45.901
  0
LINE
  8
0
 10
-67.7261
 20
-45.901
 11
-66.5677
 21
-44.4484
  0
LINE
  8
0
 10
-66.5677
 20
-44.4484
 11
-66.546
 21
-44.4212
  0
LINE
  8
0
 10
-66.546
 20
-44.4212
 11
-66.5382
 21
-44.3872
  0
LINE
  8
0
 10
-66.5382
 20
-44.3872
 11
-66.1248
 21
-42.5758
  0
LINE
  8
0
 10
-66.1248
 20
-42.5758
 11
-66.5382
 21
-40.7645
  0
LINE
  8
0
 10
-66.5382
 20
-40.7645
 11
-66.546
 21
-40.7305
  0
LINE
  8
0
 10
-66.546
 20
-40.7305
 11
-66.5677
 21
-40.7033
  0
LINE
  8
0
 10
-66.5677
 20
-40.7033
 11
-66.5952
 21
-40.6688
  0
LINE
  8
0
 10
-66.5952
 20
-40.6688
 11
-65.1907
 21
-39.9615
  0
LINE
  8
0
 10
-65.1907
 20
-39.9615
 11
-62.8856
 21
-38.8005
  0
LINE
  8
0
 10
-62.8856
 20
-38.8005
 11
-62.8663
 21
-38.7884
  0
LINE
  8
0
 10
-62.8663
 20
-38.7884
 11
-62.8083
 21
-38.7517
  0
LINE
  8
0
 10
-62.8083
 20
-38.7517
 11
-53.0678
 21
-32.4933
  0
LINE
  8
0
 10
-53.0678
 20
-32.4933
 11
-49.8295
 21
-30.4127
  0
LINE
  8
0
 10
-49.8295
 20
-30.4127
 11
-49.8295
 21
-30.4127
  0
LINE
  8
0
 10
-49.8295
 20
-30.4127
 11
-49.6748
 21
-30.0705
  0
LINE
  8
0
 10
-49.6748
 20
-30.0705
 11
-49.1512
 21
-28.9122
  0
LINE
  8
0
 10
-49.1512
 20
-28.9122
 11
-49.1979
 21
-28.8535
  0
LINE
  8
0
 10
-49.1979
 20
-28.8535
 11
-49.6189
 21
-28.3246
  0
LINE
  8
0
 10
-49.6189
 20
-28.3246
 11
-50.9802
 21
-26.6145
  0
LINE
  8
0
 10
-50.9802
 20
-26.6145
 11
-51.0271
 21
-26.5555
  0
LINE
  8
0
 10
-51.0271
 20
-26.5555
 11
-51.0444
 21
-26.5665
  0
LINE
  8
0
 10
-51.0444
 20
-26.5665
 11
-51.0444
 21
-26.5665
  0
LINE
  8
0
 10
-51.0444
 20
-26.5665
 11
-51.1043
 21
-26.6044
  0
LINE
  8
0
 10
-51.1043
 20
-26.6044
 11
-61.1692
 21
-33.0711
  0
LINE
  8
0
 10
-61.1692
 20
-33.0711
 11
-61.1694
 21
-33.0713
  0
LINE
  8
0
 10
-61.1694
 20
-33.0713
 11
-64.0129
 21
-34.8983
  0
LINE
  8
0
 10
-64.0129
 20
-34.8983
 11
-66.0597
 21
-35.9785
  0
LINE
  8
0
 10
-66.0597
 20
-35.9785
 11
-61.7291
 21
-30.2992
  0
LINE
  8
0
 10
-61.7291
 20
-30.2992
 11
-61.7291
 21
-30.1992
  0
LINE
  8
0
 10
-61.7291
 20
-30.1992
 11
-62.2397
 21
-27.747
  0
LINE
  8
0
 10
-62.2397
 20
-27.747
 11
-65.1484
 21
-13.7785
  0
LINE
  8
0
 10
-65.1484
 20
-13.7785
 11
-65.6122
 21
-9.24576
  0
LINE
  8
0
 10
-65.6122
 20
-9.24576
 11
-65.6936
 21
-8.45
  0
LINE
  8
0
 10
-65.6936
 20
-8.45
 11
-65.6936
 21
8.45
  0
LINE
  8
0
 10
-65.6936
 20
8.45
 11
-65.6122
 21
9.24576
  0
LINE
  8
0
 10
-65.6122
 20
9.24576
 11
-65.1484
 21
13.7785
  0
LINE
  8
0
 10
-65.1484
 20
13.7785
 11
-62.2397
 21
27.747
  0
LINE
  8
0
 10
-62.2397
 20
27.747
 11
-61.7291
 21
30.1992
  0
LINE
  8
0
 10
-61.7291
 20
30.1992
 11
-61.5039
 21
30.8987
  0
LINE
  8
0
 10
-61.5039
 20
30.8987
 11
-60.1307
 21
35.1646
  0
LINE
  8
0
 10
-60.1307
 20
35.1646
 11
-59.2647
 21
37.0946
  0
LINE
  8
0
 10
-59.2647
 20
37.0946
 11
-58.5163
 21
38.7627
  0
LINE
  8
0
 10
-58.5163
 20
38.7627
 11
-57.8556
 21
38.4446
  0
LINE
  8
0
 10
-57.8556
 20
38.4446
 11
-57.8242
 21
38.4295
  0
LINE
  8
0
 10
-57.8242
 20
38.4295
 11
-55.9314
 21
38.4295
  0
LINE
  8
0
 10
-55.9314
 20
38.4295
 11
-55.9
 21
38.4446
  0
LINE
  8
0
 10
-55.9
 20
38.4446
 11
-54.2261
 21
39.2507
  0
LINE
  8
0
 10
-54.2261
 20
39.2507
 11
-53.0677
 21
40.7033
  0
LINE
  8
0
 10
-53.0677
 20
40.7033
 11
-53.046
 21
40.7305
  0
LINE
  8
0
 10
-53.046
 20
40.7305
 11
-53.0382
 21
40.7645
  0
LINE
  8
0
 10
-53.0382
 20
40.7645
 11
-52.6248
 21
42.5758
  0
LINE
  8
0
 10
-52.6248
 20
42.5758
 11
-53.0382
 21
44.3872
  0
LINE
  8
0
 10
-53.0382
 20
44.3872
 11
-53.046
 21
44.4212
  0
LINE
  8
0
 10
-53.046
 20
44.4212
 11
-53.0677
 21
44.4484
  0
LINE
  8
0
 10
-53.0677
 20
44.4484
 11
-54.2261
 21
45.901
  0
LINE
  8
0
 10
-54.2261
 20
45.901
 11
-55.1202
 21
46.3316
  0
LINE
  8
0
 10
-55.1202
 20
46.3316
 11
-53.5249
 21
49.8871
  0
LINE
  8
0
 10
-53.5249
 20
49.8871
 11
-48.5249
 21
54.8871
  0
LINE
  8
0
 10
-48.5249
 20
54.8871
 11
-40.217
 21
55.7938
  0
LINE
  8
0
 10
-40.217
 20
55.7938
 11
-38.9636
 21
55.9306
  0
LINE
  8
0
 10
-38.9636
 20
55.9306
 11
-29.6117
 21
55.9306
  0
LINE
  8
0
 10
-29.6117
 20
55.9306
 11
-29.6053
 21
55.9306
  0
LINE
  8
0
 10
-29.6053
 20
55.9306
 11
-28.337
 21
55.9306
  0
LINE
  8
0
 10
-28.337
 20
55.9306
 11
-26.7915
 21
55.9306
  0
LINE
  8
0
 10
-26.7915
 20
55.9306
 11
-26.5357
 21
55.9306
  0
LINE
  8
0
 10
-26.5357
 20
55.9306
 11
-16.5151
 21
55.9306
  0
LINE
  8
0
 10
-16.5151
 20
55.9306
 11
-14.7867
 21
55.9306
  0
LINE
  8
0
 10
-14.7867
 20
55.9306
 11
-13.8996
 21
58.0665
  0
LINE
  8
0
 10
-13.8996
 20
58.0665
 11
-13.7077
 21
58.5286
  0
LINE
  8
0
 10
-13.7077
 20
58.5286
 11
-13.7014
 21
58.5438
  0
LINE
  8
0
 10
-13.7014
 20
58.5438
 11
-13.6717
 21
58.6153
  0
LINE
  8
0
 10
-13.6717
 20
58.6153
 11
-13.7087
 21
58.7506
  0
LINE
  8
0
 10
-13.7087
 20
58.7506
 11
-5.22959
 21
58.7506
  0
LINE
  8
0
 10
-5.22959
 20
58.7506
 11
-2.78091
 21
58.7506
  0
LINE
  8
0
 10
-2.78091
 20
58.7506
 11
-1.64007
 21
58.0756
  0
LINE
  8
0
 10
-1.64007
 20
58.0756
 11
1.98543
 21
55.9306
  0
LINE
  8
0
 10
1.98543
 20
55.9306
 11
3.27602
 21
55.9306
  0
LINE
  8
0
 10
3.27602
 20
55.9306
 11
3.278
 21
55.9219
  0
LINE
  8
0
 10
3.278
 20
55.9219
 11
3.29973
 21
55.8946
  0
LINE
  8
0
 10
3.29973
 20
55.8946
 11
4.45813
 21
54.442
  0
LINE
  8
0
 10
4.45813
 20
54.442
 11
6.13206
 21
53.6359
  0
LINE
  8
0
 10
6.13206
 20
53.6359
 11
6.16346
 21
53.6208
  0
LINE
  8
0
 10
6.16346
 20
53.6208
 11
8.05623
 21
53.6208
  0
LINE
  8
0
 10
8.05623
 20
53.6208
 11
8.08762
 21
53.6359
  0
LINE
  8
0
 10
8.08762
 20
53.6359
 11
9.76155
 21
54.442
  0
LINE
  8
0
 10
9.76155
 20
54.442
 11
10.92
 21
55.8946
  0
LINE
  8
0
 10
10.92
 20
55.8946
 11
10.9417
 21
55.9219
  0
LINE
  8
0
 10
10.9417
 20
55.9219
 11
10.9437
 21
55.9306
  0
LINE
  8
0
 10
10.9437
 20
55.9306
 11
12.4468
 21
55.9306
  0
LINE
  8
0
 10
12.4468
 20
55.9306
 11
14.8072
 21
55.9306
  0
LINE
  8
0
 10
14.8072
 20
55.9306
 11
18.0973
 21
49.7463
  0
LINE
  8
0
 10
18.0973
 20
49.7463
 11
20.2604
 21
45.6806
  0
LINE
  8
0
 10
20.2604
 20
45.6806
 11
20.6967
 21
45.1914
  0
LINE
  8
0
 10
20.6967
 20
45.1914
 11
21.8215
 21
43.9306
  0
LINE
  8
0
 10
21.8215
 20
43.9306
 11
32.3202
 21
43.9306
  0
LINE
  8
0
 10
32.3202
 20
43.9306
 11
36.3618
 21
43.9306
  0
LINE
  8
0
 10
36.3618
 20
43.9306
 11
38.2413
 21
43.9306
  0
LINE
  8
0
 10
38.2413
 20
43.9306
 11
39.3347
 21
43.9306
  0
LINE
  8
0
 10
39.3347
 20
43.9306
 11
46.7818
 21
43.9306
  0
LINE
  8
0
 10
46.7818
 20
43.9306
 11
46.9134
 21
43.3541
  0
LINE
  8
0
 10
46.9134
 20
43.3541
 11
46.9212
 21
43.3201
  0
LINE
  8
0
 10
46.9212
 20
43.3201
 11
46.9429
 21
43.2928
  0
LINE
  8
0
 10
46.9429
 20
43.2928
 11
48.1013
 21
41.8403
  0
LINE
  8
0
 10
48.1013
 20
41.8403
 11
49.7752
 21
41.0341
  0
LINE
  8
0
 10
49.7752
 20
41.0341
 11
49.8066
 21
41.019
  0
LINE
  8
0
 10
49.8066
 20
41.019
 11
51.6994
 21
41.019
  0
LINE
  8
0
 10
51.6994
 20
41.019
 11
51.7308
 21
41.0341
  0
LINE
  8
0
 10
51.7308
 20
41.0341
 11
52.9547
 21
41.6235
  0
LINE
  8
0
 10
52.9547
 20
41.6235
 11
52.9422
 21
41.3505
  0
LINE
  8
0
 10
52.9422
 20
41.3505
 11
51.795
 21
34.2238
  0
LINE
  8
0
 10
51.795
 20
34.2238
 11
50.8518
 21
24.4503
  0
LINE
  8
0
 10
50.8518
 20
24.4503
 11
51.3554
 21
21.0892
  0
LINE
  8
0
 10
51.3554
 20
21.0892
 11
51.9328
 21
19.6244
  0
LINE
  8
0
 10
51.9328
 20
19.6244
 11
51.6198
 21
11.5049
  0
LINE
  8
0
 10
51.6198
 20
11.5049
 11
51.6151
 21
11.3831
  0
LINE
  8
0
 10
51.6151
 20
11.3831
 11
51.5569
 21
2.17237
  0
LINE
  8
0
 10
51.5569
 20
2.17237
 11
51.5013
 21
0.923742
  0
LINE
  8
0
 10
51.5013
 20
0.923742
 11
51.3042
 21
-3.5
  0
LINE
  8
0
 10
51.3042
 20
-3.5
 11
51.3042
 21
-20.5
  0
LINE
  8
0
 10
51.3042
 20
-20.5
 11
51.5013
 21
-24.9237
  0
LINE
  8
0
 10
51.5013
 20
-24.9237
 11
51.5569
 21
-26.1724
  0
LINE
  8
0
 10
51.5569
 20
-26.1724
 11
51.6151
 21
-35.3831
  0
LINE
  8
0
 10
51.6151
 20
-35.3831
 11
51.6198
 21
-35.5049
  0
LINE
  8
0
 10
51.6198
 20
-35.5049
 11
51.9328
 21
-43.6244
  0
LINE
  8
0
 10
51.9328
 20
-43.6244
 11
51.2921
 21
-47.6518
  0
LINE
  8
0
 10
51.2921
 20
-47.6518
 11
51.2759
 21
-47.8881
  0
LINE
  8
0
 10
51.2759
 20
-47.8881
 11
50.1971
 21
-47.8881
  0
LINE
  8
0
 10
50.1971
 20
-47.8881
 11
49.8697
 21
-46.4536
  0
LINE
  8
0
 10
49.8697
 20
-46.4536
 11
49.862
 21
-46.4196
  0
LINE
  8
0
 10
49.862
 20
-46.4196
 11
49.8402
 21
-46.3924
  0
LINE
  8
0
 10
49.8402
 20
-46.3924
 11
48.6818
 21
-44.9398
  0
LINE
  8
0
 10
48.6818
 20
-44.9398
 11
47.0079
 21
-44.1337
  0
LINE
  8
0
 10
47.0079
 20
-44.1337
 11
46.9765
 21
-44.1185
  0
LINE
  8
0
 10
46.9765
 20
-44.1185
 11
45.0837
 21
-44.1185
  0
LINE
  8
0
 10
45.0837
 20
-44.1185
 11
45.0523
 21
-44.1337
  0
LINE
  8
0
 10
45.0523
 20
-44.1337
 11
43.3784
 21
-44.9398
  0
LINE
  8
0
 10
43.3784
 20
-44.9398
 11
42.22
 21
-46.3924
  0
LINE
  8
0
 10
42.22
 20
-46.3924
 11
42.1983
 21
-46.4196
  0
LINE
  8
0
 10
42.1983
 20
-46.4196
 11
42.1905
 21
-46.4536
  0
LINE
  8
0
 10
42.1905
 20
-46.4536
 11
41.8631
 21
-47.8881
  0
LINE
  8
0
 10
41.8631
 20
-47.8881
 11
33.665
 21
-47.8881
  0
LINE
  8
0
 10
33.665
 20
-47.8881
 11
30.1006
 21
-47.8881
  0
LINE
  8
0
 10
30.1006
 20
-47.8881
 11
24.4565
 21
-47.8881
  0
LINE
  8
0
 10
24.4565
 20
-47.8881
 11
15.5956
 21
-47.8881
  0
LINE
  8
0
 10
15.5956
 20
-47.8881
 11
14.5369
 21
-48.439
  0
LINE
  8
0
 10
14.5369
 20
-48.439
 11
13.8544
 21
-48.794
  0
LINE
  8
0
 10
13.8544
 20
-48.794
 11
14.0777
 21
-50.4122
  0
LINE
  8
0
 10
14.0777
 20
-50.4122
 11
14.2601
 21
-51.7332
  0
LINE
  8
0
 10
14.2601
 20
-51.7332
 11
14.2677
 21
-51.7884
  0
LINE
  8
0
 10
14.2677
 20
-51.7884
 11
14.2677
 21
-51.7884
  0
LINE
  8
0
 10
14.2677
 20
-51.7884
 11
14.3045
 21
-51.7884
  0
LINE
  8
0
 10
14.3045
 20
-51.7884
 11
17.385
 21
-51.7884
  0
LINE
  8
0
 10
17.385
 20
-51.7884
 11
17.0142
 21
-53.2585
  0
LINE
  8
0
 10
17.0142
 20
-53.2585
 11
16.3401
 21
-55.9306
  0
LINE
  8
0
 10
16.3401
 20
-55.9306
 11
13.9853
 21
-55.9306
  0
LINE
  8
0
 10
13.9853
 20
-55.9306
 11
2.06633
 21
-55.9306
  0
LINE
  8
0
 10
2.06633
 20
-55.9306
 11
-9.51471
 21
-51.8917
  0
LINE
  8
0
 10
-9.51471
 20
-51.8917
 11
-13.1656
 21
-50.6184
  0
LINE
  8
0
 10
-13.1656
 20
-50.6184
 11
-13.2338
 21
-50.622
  0
LINE
  8
0
 10
-13.2338
 20
-50.622
 11
-13.2521
 21
-50.623
  0
LINE
  8
0
 10
-13.2521
 20
-50.623
 11
-19.7312
 21
-51.0099
  0
LINE
  8
0
 10
-19.7312
 20
-51.0099
 11
-20.184
 21
-50.442
  0
LINE
  8
0
 10
-20.184
 20
-50.442
 11
-21.8579
 21
-49.6359
  0
LINE
  8
0
 10
-21.8579
 20
-49.6359
 11
-21.8893
 21
-49.6208
  0
LINE
  8
0
 10
-21.8893
 20
-49.6208
 11
-23.7821
 21
-49.6208
  0
LINE
  8
0
 10
-23.7821
 20
-49.6208
 11
-23.8135
 21
-49.6359
  0
LINE
  8
0
 10
-23.8135
 20
-49.6359
 11
-25.4874
 21
-50.442
  0
LINE
  8
0
 10
-25.4874
 20
-50.442
 11
-26.2507
 21
-51.3991
  0
LINE
  8
0
 10
-26.2507
 20
-51.3991
 11
-27.7512
 21
-51.4887
  0
LINE
  8
0
 10
-27.7512
 20
-51.4887
 11
-27.7622
 21
-51.4508
  0
LINE
  8
0
 10
-27.7622
 20
-51.4508
 11
-27.7814
 21
-51.3844
  0
LINE
  8
0
 10
-27.7814
 20
-51.3844
 11
-29.1524
 21
-50.826
  0
LINE
  8
0
 10
-29.1524
 20
-50.826
 11
-32.9338
 21
-49.2858
  0
LINE
  8
0
 10
-32.9338
 20
-49.2858
 11
-33.0049
 21
-49.1965
  0
LINE
  8
0
 10
-33.0049
 20
-49.1965
 11
-33.0615
 21
-49.2324
  0
LINE
  8
0
 10
-33.0615
 20
-49.2324
 11
-33.0821
 21
-49.2453
  0
LINE
  8
0
 10
-33.0821
 20
-49.2453
 11
-42.6064
 21
-55.3648
  0
LINE
  8
0
 10
-42.6064
 20
-55.3648
 11
-45.9842
 21
-57.5351
  0
LINE
  8
0
 10
-45.9842
 20
-57.5351
 11
-46.0548
 21
-57.4464
  0
LINE
  8
0
 10
-46.0548
 20
-57.4464
 11
-47.2584
 21
-57.3405
  0
LINE
  8
0
 10
-47.2584
 20
-57.3405
 11
-49.6404
 21
-57.1309
  0
LINE
  8
0
 10
-49.6404
 20
-57.1309
 11
-53.793
 21
-62.2589
  0
LINE
  8
0
 10
-53.793
 20
-62.2589
 11
-53.7933
 21
-62.2592
  0
LINE
  8
0
 10
-53.7933
 20
-62.2592
 11
-58.1561
 21
-67.6469
  0
LINE
  8
0
 10
-58.1561
 20
-67.6469
 11
-60.7145
 21
-68.9475
  0
LINE
  8
0
 10
-60.7145
 20
-68.9475
 11
-62.4299
 21
-69.8195
  0
LINE
  8
0
 10
-62.4299
 20
-69.8195
 11
-65.4766
 21
-78.1904
  0
LINE
  8
0
 10
-65.4766
 20
-78.1904
 11
-67.9861
 21
-85.0851
  0
LINE
  8
0
 10
-67.9861
 20
-85.0851
 11
-71.8258
 21
-86.8499
  0
LINE
  8
0
 10
-71.8258
 20
-86.8499
 11
-71.8259
 21
-86.85
  0
LINE
  8
0
 10
-71.8259
 20
-86.85
 11
-74.3516
 21
-88.0109
  0
LINE
  8
0
 10
-74.3516
 20
-88.0109
 11
-74.3516
 21
-88.0109
  0
LINE
  8
0
 10
-74.3516
 20
-88.0109
 11
-83.2276
 21
-85.0206
  0
LINE
  8
0
 10
-83.2276
 20
-85.0206
 11
-90.2164
 21
-82.6661
  0
LINE
  8
0
 10
-90.2164
 20
-82.6661
 11
-91.5816
 21
-79.9571
  0
LINE
  8
0
 10
-91.5816
 20
-79.9571
 11
-93.1057
 21
-76.9329
  0
LINE
  8
0
 10
-72.0778
 20
-42.5758
 11
-71.2278
 21
-41.1036
  0
LINE
  8
0
 10
-71.2278
 20
-41.1036
 11
-69.5278
 21
-41.1036
  0
LINE
  8
0
 10
-69.5278
 20
-41.1036
 11
-68.6778
 21
-42.5758
  0
LINE
  8
0
 10
-68.6778
 20
-42.5758
 11
-69.5278
 21
-44.0481
  0
LINE
  8
0
 10
-69.5278
 20
-44.0481
 11
-71.2278
 21
-44.0481
  0
LINE
  8
0
 10
-71.2278
 20
-44.0481
 11
-72.0778
 21
-42.5758
  0
LINE
  8
0
 10
-58.5778
 20
42.5758
 11
-57.7278
 21
44.0481
  0
LINE
  8
0
 10
-57.7278
 20
44.0481
 11
-56.0278
 21
44.0481
  0
LINE
  8
0
 10
-56.0278
 20
44.0481
 11
-55.1778
 21
42.5758
  0
LINE
  8
0
 10
-55.1778
 20
42.5758
 11
-56.0278
 21
41.1036
  0
LINE
  8
0
 10
-56.0278
 20
41.1036
 11
-57.7278
 21
41.1036
  0
LINE
  8
0
 10
-57.7278
 20
41.1036
 11
-58.5778
 21
42.5758
  0
LINE
  8
0
 10
-24.5357
 20
-53.7672
 11
-23.6857
 21
-52.2949
  0
LINE
  8
0
 10
-23.6857
 20
-52.2949
 11
-21.9857
 21
-52.2949
  0
LINE
  8
0
 10
-21.9857
 20
-52.2949
 11
-21.1357
 21
-53.7672
  0
LINE
  8
0
 10
-21.1357
 20
-53.7672
 11
-21.9857
 21
-55.2394
  0
LINE
  8
0
 10
-21.9857
 20
-55.2394
 11
-23.6857
 21
-55.2394
  0
LINE
  8
0
 10
-23.6857
 20
-55.2394
 11
-24.5357
 21
-53.7672
  0
LINE
  8
0
 10
5.40984
 20
57.7672
 11
6.25984
 21
59.2394
  0
LINE
  8
0
 10
6.25984
 20
59.2394
 11
7.95984
 21
59.2394
  0
LINE
  8
0
 10
7.95984
 20
59.2394
 11
8.80984
 21
57.7672
  0
LINE
  8
0
 10
8.80984
 20
57.7672
 11
7.95984
 21
56.2949
  0
LINE
  8
0
 10
7.95984
 20
56.2949
 11
6.25984
 21
56.2949
  0
LINE
  8
0
 10
6.25984
 20
56.2949
 11
5.40984
 21
57.7672
  0
LINE
  8
0
 10
44.3301
 20
-48.2649
 11
45.1801
 21
-46.7927
  0
LINE
  8
0
 10
45.1801
 20
-46.7927
 11
46.8801
 21
-46.7927
  0
LINE
  8
0
 10
46.8801
 20
-46.7927
 11
47.7301
 21
-48.2649
  0
LINE
  8
0
 10
47.7301
 20
-48.2649
 11
46.8801
 21
-49.7372
  0
LINE
  8
0
 10
46.8801
 20
-49.7372
 11
45.1801
 21
-49.7372
  0
LINE
  8
0
 10
45.1801
 20
-49.7372
 11
44.3301
 21
-48.2649
  0
LINE
  8
0
 10
49.053
 20
45.1654
 11
49.903
 21
46.6376
  0
LINE
  8
0
 10
49.903
 20
46.6376
 11
51.603
 21
46.6376
  0
LINE
  8
0
 10
51.603
 20
46.6376
 11
52.453
 21
45.1654
  0
LINE
  8
0
 10
52.453
 20
45.1654
 11
51.603
 21
43.6932
  0
LINE
  8
0
 10
51.603
 20
43.6932
 11
49.903
 21
43.6932
  0
LINE
  8
0
 10
49.903
 20
43.6932
 11
49.053
 21
45.1654
  0
ENDSEC
  0
SECTION
  2
OBJECTS
  0
DICTIONARY
  0
ENDSEC
  0
EOF
