  0
SECTION
  2
BLOCKS
  0
ENDSEC
  0
SECTION
  2
ENTITIES
  0
LINE
  8
0
 10
-81.8521
 20
-65.1698
 11
-79.4628
 21
-69.9107
  0
LINE
  8
0
 10
-79.4628
 20
-69.9107
 11
-77.6663
 21
-73.4756
  0
LINE
  8
0
 10
-77.6663
 20
-73.4756
 11
-77.627
 21
-73.4888
  0
LINE
  8
0
 10
-77.627
 20
-73.4888
 11
-77.6132
 21
-73.4935
  0
LINE
  8
0
 10
-77.6132
 20
-73.4935
 11
-70.5001
 21
-75.8899
  0
LINE
  8
0
 10
-70.5001
 20
-75.8899
 11
-64.0588
 21
-78.0599
  0
LINE
  8
0
 10
-64.0588
 20
-78.0599
 11
-64.0206
 21
-78.0728
  0
LINE
  8
0
 10
-64.0206
 20
-78.0728
 11
-59.9099
 21
-76.1834
  0
LINE
  8
0
 10
-59.9099
 20
-76.1834
 11
-59.9097
 21
-76.1833
  0
LINE
  8
0
 10
-59.9097
 20
-76.1833
 11
-55.3635
 21
-74.0938
  0
LINE
  8
0
 10
-55.3635
 20
-74.0938
 11
-55.3492
 21
-74.0543
  0
LINE
  8
0
 10
-55.3492
 20
-74.0543
 11
-55.3356
 21
-74.017
  0
LINE
  8
0
 10
-55.3356
 20
-74.017
 11
-53.4616
 21
-68.8684
  0
LINE
  8
0
 10
-53.4616
 20
-68.8684
 11
-50.6407
 21
-61.118
  0
LINE
  8
0
 10
-50.6407
 20
-61.118
 11
-50.0892
 21
-60.8462
  0
LINE
  8
0
 10
-50.0892
 20
-60.8462
 11
-49.6733
 21
-61.1433
  0
LINE
  8
0
 10
-49.6733
 20
-61.1433
 11
-48.8963
 21
-61.6985
  0
LINE
  8
0
 10
-48.8963
 20
-61.6985
 11
-48.8536
 21
-61.7291
  0
LINE
  8
0
 10
-48.8536
 20
-61.7291
 11
-48.8536
 21
-61.7291
  0
LINE
  8
0
 10
-48.8536
 20
-61.7291
 11
-48.8221
 21
-61.6902
  0
LINE
  8
0
 10
-48.8221
 20
-61.6902
 11
-46.1892
 21
-58.4389
  0
LINE
  8
0
 10
-46.1892
 20
-58.4389
 11
-40.3586
 21
-51.2386
  0
LINE
  8
0
 10
-40.3586
 20
-51.2386
 11
-39.7046
 21
-51.5138
  0
LINE
  8
0
 10
-39.7046
 20
-51.5138
 11
-38.1942
 21
-52.1494
  0
LINE
  8
0
 10
-38.1942
 20
-52.1494
 11
-38.1853
 21
-52.1607
  0
LINE
  8
0
 10
-38.1853
 20
-52.1607
 11
-38.1697
 21
-52.1802
  0
LINE
  8
0
 10
-38.1697
 20
-52.1802
 11
-38.1338
 21
-52.2253
  0
LINE
  8
0
 10
-38.1338
 20
-52.2253
 11
-38.1338
 21
-52.2253
  0
LINE
  8
0
 10
-38.1338
 20
-52.2253
 11
-38.114
 21
-52.2128
  0
LINE
  8
0
 10
-38.114
 20
-52.2128
 11
-38.114
 21
-52.2128
  0
LINE
  8
0
 10
-38.114
 20
-52.2128
 11
-38.0682
 21
-52.1838
  0
LINE
  8
0
 10
-38.0682
 20
-52.1838
 11
-30.3684
 21
-47.2366
  0
LINE
  8
0
 10
-30.3684
 20
-47.2366
 11
-30.3682
 21
-47.2365
  0
LINE
  8
0
 10
-30.3682
 20
-47.2365
 11
-27.1014
 21
-45.1375
  0
LINE
  8
0
 10
-27.1014
 20
-45.1375
 11
-27.0414
 21
-45.213
  0
LINE
  8
0
 10
-27.0414
 20
-45.213
 11
-26.3604
 21
-45.7444
  0
LINE
  8
0
 10
-26.3604
 20
-45.7444
 11
-24.2872
 21
-47.3624
  0
LINE
  8
0
 10
-24.2872
 20
-47.3624
 11
-24.2872
 21
-47.3624
  0
LINE
  8
0
 10
-24.2872
 20
-47.3624
 11
-24.2779
 21
-47.3945
  0
LINE
  8
0
 10
-24.2779
 20
-47.3945
 11
-24.2614
 21
-47.4516
  0
LINE
  8
0
 10
-24.2614
 20
-47.4516
 11
-24.2061
 21
-47.4487
  0
LINE
  8
0
 10
-24.2061
 20
-47.4487
 11
-24.1879
 21
-47.4478
  0
LINE
  8
0
 10
-24.1879
 20
-47.4478
 11
-22.6017
 21
-47.3531
  0
LINE
  8
0
 10
-22.6017
 20
-47.3531
 11
-21.6643
 21
-48.5285
  0
LINE
  8
0
 10
-21.6643
 20
-48.5285
 11
-20.2415
 21
-49.2137
  0
LINE
  8
0
 10
-20.2415
 20
-49.2137
 11
-20.2148
 21
-49.2265
  0
LINE
  8
0
 10
-20.2148
 20
-49.2265
 11
-18.6059
 21
-49.2265
  0
LINE
  8
0
 10
-18.6059
 20
-49.2265
 11
-18.5792
 21
-49.2137
  0
LINE
  8
0
 10
-18.5792
 20
-49.2137
 11
-17.1564
 21
-48.5285
  0
LINE
  8
0
 10
-17.1564
 20
-48.5285
 11
-16.1718
 21
-47.2938
  0
LINE
  8
0
 10
-16.1718
 20
-47.2938
 11
-16.1533
 21
-47.2706
  0
LINE
  8
0
 10
-16.1533
 20
-47.2706
 11
-16.1467
 21
-47.2417
  0
LINE
  8
0
 10
-16.1467
 20
-47.2417
 11
-16.0833
 21
-46.9638
  0
LINE
  8
0
 10
-16.0833
 20
-46.9638
 11
-14.8549
 21
-46.8905
  0
LINE
  8
0
 10
-14.8549
 20
-46.8905
 11
-11.8625
 21
-46.7118
  0
LINE
  8
0
 10
-11.8625
 20
-46.7118
 11
-1.67697
 21
-50.3683
  0
LINE
  8
0
 10
-1.67697
 20
-50.3683
 11
0.947639
 21
-51.3105
  0
LINE
  8
0
 10
0.947639
 20
-51.3105
 11
6.00354
 21
-51.3105
  0
LINE
  8
0
 10
6.00354
 20
-51.3105
 11
6.03815
 21
-51.3105
  0
LINE
  8
0
 10
6.03815
 20
-51.3105
 11
15.3886
 21
-51.3105
  0
LINE
  8
0
 10
15.3886
 20
-51.3105
 11
16.3691
 21
-50.3473
  0
LINE
  8
0
 10
16.3691
 20
-50.3473
 11
16.903
 21
-49.823
  0
LINE
  8
0
 10
16.903
 20
-49.823
 11
18.6629
 21
-45.3844
  0
LINE
  8
0
 10
18.6629
 20
-45.3844
 11
19.2038
 21
-44.0201
  0
LINE
  8
0
 10
19.2038
 20
-44.0201
 11
20.5784
 21
-44.0201
  0
LINE
  8
0
 10
20.5784
 20
-44.0201
 11
26.5731
 21
-44.0201
  0
LINE
  8
0
 10
26.5731
 20
-44.0201
 11
30.9785
 21
-44.0201
  0
LINE
  8
0
 10
30.9785
 20
-44.0201
 11
37.2217
 21
-44.0201
  0
LINE
  8
0
 10
37.2217
 20
-44.0201
 11
38.2945
 21
-44.5368
  0
LINE
  8
0
 10
38.2945
 20
-44.5368
 11
38.3212
 21
-44.5496
  0
LINE
  8
0
 10
38.3212
 20
-44.5496
 11
39.93
 21
-44.5496
  0
LINE
  8
0
 10
39.93
 20
-44.5496
 11
39.9567
 21
-44.5368
  0
LINE
  8
0
 10
39.9567
 20
-44.5368
 11
41.0295
 21
-44.0201
  0
LINE
  8
0
 10
41.0295
 20
-44.0201
 11
42.6776
 21
-44.0201
  0
LINE
  8
0
 10
42.6776
 20
-44.0201
 11
43.907
 21
-44.0201
  0
LINE
  8
0
 10
43.907
 20
-44.0201
 11
44.0263
 21
-43.9472
  0
LINE
  8
0
 10
44.0263
 20
-43.9472
 11
45.1667
 21
-43.2501
  0
LINE
  8
0
 10
45.1667
 20
-43.2501
 11
45.5582
 21
-37.547
  0
LINE
  8
0
 10
45.5582
 20
-37.547
 11
45.6176
 21
-36.6818
  0
LINE
  8
0
 10
45.6176
 20
-36.6818
 11
45.6444
 21
-34.8541
  0
LINE
  8
0
 10
45.6444
 20
-34.8541
 11
45.6802
 21
-32.4156
  0
LINE
  8
0
 10
45.6802
 20
-32.4156
 11
46.2082
 21
-26.8824
  0
LINE
  8
0
 10
46.2082
 20
-26.8824
 11
45.9579
 21
-22.0838
  0
LINE
  8
0
 10
45.9579
 20
-22.0838
 11
45.8426
 21
-19.8118
  0
LINE
  8
0
 10
45.8426
 20
-19.8118
 11
45.7173
 21
-17.34
  0
LINE
  8
0
 10
45.7173
 20
-17.34
 11
45.7173
 21
-3.06
  0
LINE
  8
0
 10
45.7173
 20
-3.06
 11
45.8426
 21
-0.588249
  0
LINE
  8
0
 10
45.8426
 20
-0.588249
 11
45.9579
 21
1.68379
  0
LINE
  8
0
 10
45.9579
 20
1.68379
 11
46.2082
 21
6.48238
  0
LINE
  8
0
 10
46.2082
 20
6.48238
 11
45.6802
 21
12.0156
  0
LINE
  8
0
 10
45.6802
 20
12.0156
 11
45.6444
 21
14.4541
  0
LINE
  8
0
 10
45.6444
 20
14.4541
 11
45.6176
 21
16.2818
  0
LINE
  8
0
 10
45.6176
 20
16.2818
 11
45.5164
 21
18.3183
  0
LINE
  8
0
 10
45.5164
 20
18.3183
 11
45.7403
 21
19.7234
  0
LINE
  8
0
 10
45.7403
 20
19.7234
 11
45.7485
 21
19.8032
  0
LINE
  8
0
 10
45.7485
 20
19.8032
 11
45.7498
 21
19.826
  0
LINE
  8
0
 10
45.7498
 20
19.826
 11
45.6883
 21
19.9389
  0
LINE
  8
0
 10
45.6883
 20
19.9389
 11
45.3785
 21
20.3356
  0
LINE
  8
0
 10
45.3785
 20
20.3356
 11
45.7604
 21
22.8511
  0
LINE
  8
0
 10
45.7604
 20
22.8511
 11
45.6981
 21
24.4101
  0
LINE
  8
0
 10
45.6981
 20
24.4101
 11
46.6837
 21
33.734
  0
LINE
  8
0
 10
46.6837
 20
33.734
 11
46.6837
 21
33.734
  0
LINE
  8
0
 10
46.6837
 20
33.734
 11
46.7885
 21
36.0358
  0
LINE
  8
0
 10
46.7885
 20
36.0358
 11
46.9519
 21
39.623
  0
LINE
  8
0
 10
46.9519
 20
39.623
 11
46.9519
 21
39.623
  0
LINE
  8
0
 10
46.9519
 20
39.623
 11
46.9519
 21
39.623
  0
LINE
  8
0
 10
46.9519
 20
39.623
 11
46.3235
 21
40.4506
  0
LINE
  8
0
 10
46.3235
 20
40.4506
 11
45.8224
 21
41.1105
  0
LINE
  8
0
 10
45.8224
 20
41.1105
 11
45.4789
 21
41.1105
  0
LINE
  8
0
 10
45.4789
 20
41.1105
 11
45.394
 21
41.217
  0
LINE
  8
0
 10
45.394
 20
41.217
 11
43.9712
 21
41.9022
  0
LINE
  8
0
 10
43.9712
 20
41.9022
 11
43.9445
 21
41.915
  0
LINE
  8
0
 10
43.9445
 20
41.915
 11
42.3356
 21
41.915
  0
LINE
  8
0
 10
42.3356
 20
41.915
 11
42.309
 21
41.9022
  0
LINE
  8
0
 10
42.309
 20
41.9022
 11
40.8861
 21
41.217
  0
LINE
  8
0
 10
40.8861
 20
41.217
 11
40.8012
 21
41.1105
  0
LINE
  8
0
 10
40.8012
 20
41.1105
 11
40.0609
 21
41.1105
  0
LINE
  8
0
 10
40.0609
 20
41.1105
 11
32.865
 21
41.1105
  0
LINE
  8
0
 10
32.865
 20
41.1105
 11
31.2792
 21
41.1105
  0
LINE
  8
0
 10
31.2792
 20
41.1105
 11
30.2413
 21
41.1105
  0
LINE
  8
0
 10
30.2413
 20
41.1105
 11
22.692
 21
41.1105
  0
LINE
  8
0
 10
22.692
 20
41.1105
 11
18.549
 21
41.1105
  0
LINE
  8
0
 10
18.549
 20
41.1105
 11
17.7457
 21
42.7023
  0
LINE
  8
0
 10
17.7457
 20
42.7023
 11
14.1523
 21
49.823
  0
LINE
  8
0
 10
14.1523
 20
49.823
 11
13.659
 21
50.3076
  0
LINE
  8
0
 10
13.659
 20
50.3076
 11
12.6379
 21
51.3105
  0
LINE
  8
0
 10
12.6379
 20
51.3105
 11
8.79017
 21
51.3105
  0
LINE
  8
0
 10
8.79017
 20
51.3105
 11
8.29732
 21
51.9285
  0
LINE
  8
0
 10
8.29732
 20
51.9285
 11
6.87448
 21
52.6137
  0
LINE
  8
0
 10
6.87448
 20
52.6137
 11
6.84779
 21
52.6265
  0
LINE
  8
0
 10
6.84779
 20
52.6265
 11
5.23894
 21
52.6265
  0
LINE
  8
0
 10
5.23894
 20
52.6265
 11
5.21225
 21
52.6137
  0
LINE
  8
0
 10
5.21225
 20
52.6137
 11
3.78941
 21
51.9285
  0
LINE
  8
0
 10
3.78941
 20
51.9285
 11
3.29656
 21
51.3105
  0
LINE
  8
0
 10
3.29656
 20
51.3105
 11
1.01641
 21
51.3105
  0
LINE
  8
0
 10
1.01641
 20
51.3105
 11
-2.10364
 21
53.1161
  0
LINE
  8
0
 10
-2.10364
 20
53.1161
 11
-2.10372
 21
53.1161
  0
LINE
  8
0
 10
-2.10372
 20
53.1161
 11
-3.12556
 21
53.7075
  0
LINE
  8
0
 10
-3.12556
 20
53.7075
 11
-3.12556
 21
53.7075
  0
LINE
  8
0
 10
-3.12556
 20
53.7075
 11
-11.2114
 21
53.7075
  0
LINE
  8
0
 10
-11.2114
 20
53.7075
 11
-11.2327
 21
53.7075
  0
LINE
  8
0
 10
-11.2327
 20
53.7075
 11
-14.0311
 21
53.7075
  0
LINE
  8
0
 10
-14.0311
 20
53.7075
 11
-14.0534
 21
53.6487
  0
LINE
  8
0
 10
-14.0534
 20
53.6487
 11
-14.059
 21
53.6339
  0
LINE
  8
0
 10
-14.059
 20
53.6339
 11
-14.2254
 21
53.1946
  0
LINE
  8
0
 10
-14.2254
 20
53.1946
 11
-14.8897
 21
51.4406
  0
LINE
  8
0
 10
-14.8897
 20
51.4406
 11
-14.8955
 21
51.4255
  0
LINE
  8
0
 10
-14.8955
 20
51.4255
 11
-14.8756
 21
51.3105
  0
LINE
  8
0
 10
-14.8756
 20
51.3105
 11
-21.6934
 21
51.3105
  0
LINE
  8
0
 10
-21.6934
 20
51.3105
 11
-21.7065
 21
51.3105
  0
LINE
  8
0
 10
-21.7065
 20
51.3105
 11
-23.5033
 21
51.3105
  0
LINE
  8
0
 10
-23.5033
 20
51.3105
 11
-24.8642
 21
51.3105
  0
LINE
  8
0
 10
-24.8642
 20
51.3105
 11
-24.8732
 21
51.3105
  0
LINE
  8
0
 10
-24.8732
 20
51.3105
 11
-25.103
 21
51.3105
  0
LINE
  8
0
 10
-25.103
 20
51.3105
 11
-32.8394
 21
51.3105
  0
LINE
  8
0
 10
-32.8394
 20
51.3105
 11
-32.8485
 21
51.3105
  0
LINE
  8
0
 10
-32.8485
 20
51.3105
 11
-34.1444
 21
51.3105
  0
LINE
  8
0
 10
-34.1444
 20
51.3105
 11
-34.1509
 21
51.3105
  0
LINE
  8
0
 10
-34.1509
 20
51.3105
 11
-35.1371
 21
51.0328
  0
LINE
  8
0
 10
-35.1371
 20
51.0328
 11
-41.3312
 21
49.289
  0
LINE
  8
0
 10
-41.3312
 20
49.289
 11
-48.1312
 21
42.489
  0
LINE
  8
0
 10
-48.1312
 20
42.489
 11
-48.9629
 21
40.6354
  0
LINE
  8
0
 10
-48.9629
 20
40.6354
 11
-49.4386
 21
39.5752
  0
LINE
  8
0
 10
-49.4386
 20
39.5752
 11
-50.6001
 21
39.0158
  0
LINE
  8
0
 10
-50.6001
 20
39.0158
 11
-51.5847
 21
37.7811
  0
LINE
  8
0
 10
-51.5847
 20
37.7811
 11
-51.6032
 21
37.758
  0
LINE
  8
0
 10
-51.6032
 20
37.758
 11
-51.6098
 21
37.7291
  0
LINE
  8
0
 10
-51.6098
 20
37.7291
 11
-51.9612
 21
36.1895
  0
LINE
  8
0
 10
-51.9612
 20
36.1895
 11
-51.6228
 21
34.707
  0
LINE
  8
0
 10
-51.6228
 20
34.707
 11
-53.7461
 21
29.9749
  0
LINE
  8
0
 10
-53.7461
 20
29.9749
 11
-54.9035
 21
26.3795
  0
LINE
  8
0
 10
-54.9035
 20
26.3795
 11
-55.1047
 21
25.7544
  0
LINE
  8
0
 10
-55.1047
 20
25.7544
 11
-55.5625
 21
23.556
  0
LINE
  8
0
 10
-55.5625
 20
23.556
 11
-58.0112
 21
11.7967
  0
LINE
  8
0
 10
-58.0112
 20
11.7967
 11
-58.4016
 21
7.98087
  0
LINE
  8
0
 10
-58.4016
 20
7.98087
 11
-58.4746
 21
7.26749
  0
LINE
  8
0
 10
-58.4746
 20
7.26749
 11
-58.4746
 21
-7.26749
  0
LINE
  8
0
 10
-58.4746
 20
-7.26749
 11
-58.4016
 21
-7.98087
  0
LINE
  8
0
 10
-58.4016
 20
-7.98087
 11
-58.0112
 21
-11.7967
  0
LINE
  8
0
 10
-58.0112
 20
-11.7967
 11
-55.5625
 21
-23.556
  0
LINE
  8
0
 10
-55.5625
 20
-23.556
 11
-55.119
 21
-25.6854
  0
LINE
  8
0
 10
-55.119
 20
-25.6854
 11
-57.5387
 21
-28.4003
  0
LINE
  8
0
 10
-57.5387
 20
-28.4003
 11
-57.5388
 21
-28.4005
  0
LINE
  8
0
 10
-57.5388
 20
-28.4005
 11
-61.8767
 21
-33.2676
  0
LINE
  8
0
 10
-61.8767
 20
-33.2676
 11
-62.0751
 21
-33.3631
  0
LINE
  8
0
 10
-62.0751
 20
-33.3631
 11
-62.5508
 21
-33.9596
  0
LINE
  8
0
 10
-62.5508
 20
-33.9596
 11
-62.5954
 21
-33.9831
  0
LINE
  8
0
 10
-62.5954
 20
-33.9831
 11
-62.6099
 21
-34.001
  0
LINE
  8
0
 10
-62.6099
 20
-34.001
 11
-62.6099
 21
-34.001
  0
LINE
  8
0
 10
-62.6099
 20
-34.001
 11
-62.6456
 21
-34.0452
  0
LINE
  8
0
 10
-62.6456
 20
-34.0452
 11
-62.655
 21
-34.0903
  0
LINE
  8
0
 10
-62.655
 20
-34.0903
 11
-63.0379
 21
-34.5705
  0
LINE
  8
0
 10
-63.0379
 20
-34.5705
 11
-63.3996
 21
-34.9763
  0
LINE
  8
0
 10
-63.3996
 20
-34.9763
 11
-63.4352
 21
-35.0201
  0
LINE
  8
0
 10
-63.4352
 20
-35.0201
 11
-63.4352
 21
-35.0201
  0
LINE
  8
0
 10
-63.4352
 20
-35.0201
 11
-63.4499
 21
-35.0384
  0
LINE
  8
0
 10
-63.4499
 20
-35.0384
 11
-63.4885
 21
-35.2245
  0
LINE
  8
0
 10
-63.4885
 20
-35.2245
 11
-63.7177
 21
-35.5033
  0
LINE
  8
0
 10
-63.7177
 20
-35.5033
 11
-63.8018
 21
-35.4729
  0
LINE
  8
0
 10
-63.8018
 20
-35.4729
 11
-63.8018
 21
-35.4729
  0
LINE
  8
0
 10
-63.8018
 20
-35.4729
 11
-63.8166
 21
-35.4912
  0
LINE
  8
0
 10
-63.8166
 20
-35.4912
 11
-68.9825
 21
-41.8706
  0
LINE
  8
0
 10
-68.9825
 20
-41.8706
 11
-68.9827
 21
-41.8707
  0
LINE
  8
0
 10
-68.9827
 20
-41.8707
 11
-71.0904
 21
-44.4736
  0
LINE
  8
0
 10
-71.0904
 20
-44.4736
 11
-74.9978
 21
-48.9121
  0
LINE
  8
0
 10
-74.9978
 20
-48.9121
 11
-74.9979
 21
-48.9122
  0
LINE
  8
0
 10
-74.9979
 20
-48.9122
 11
-77.0656
 21
-51.261
  0
LINE
  8
0
 10
-77.0656
 20
-51.261
 11
-79.8702
 21
-58.9666
  0
LINE
  8
0
 10
-79.8702
 20
-58.9666
 11
-81.7884
 21
-64.2367
  0
LINE
  8
0
 10
-81.7884
 20
-64.2367
 11
-81.8024
 21
-64.2752
  0
LINE
  8
0
 10
-81.8024
 20
-64.2752
 11
-81.8024
 21
-64.2752
  0
LINE
  8
0
 10
-81.8024
 20
-64.2752
 11
-81.8163
 21
-64.3135
  0
LINE
  8
0
 10
-81.8163
 20
-64.3135
 11
-81.8342
 21
-64.7413
  0
LINE
  8
0
 10
-81.8342
 20
-64.7413
 11
-81.8521
 21
-65.1698
  0
LINE
  8
0
 10
-79.1399
 20
-65.393
 11
-77.6382
 21
-61.2672
  0
LINE
  8
0
 10
-77.6382
 20
-61.2672
 11
-74.641
 21
-53.0324
  0
LINE
  8
0
 10
-74.641
 20
-53.0324
 11
-71.2023
 21
-49.2776
  0
LINE
  8
0
 10
-71.2023
 20
-49.2776
 11
-69.2546
 21
-47.1509
  0
LINE
  8
0
 10
-69.2546
 20
-47.1509
 11
-63.3957
 21
-40.0224
  0
LINE
  8
0
 10
-63.3957
 20
-40.0224
 11
-62.318
 21
-38.7112
  0
LINE
  8
0
 10
-62.318
 20
-38.7112
 11
-62.0751
 21
-39.0158
  0
LINE
  8
0
 10
-62.0751
 20
-39.0158
 11
-60.6523
 21
-39.701
  0
LINE
  8
0
 10
-60.6523
 20
-39.701
 11
-60.6256
 21
-39.7139
  0
LINE
  8
0
 10
-60.6256
 20
-39.7139
 11
-59.0167
 21
-39.7139
  0
LINE
  8
0
 10
-59.0167
 20
-39.7139
 11
-58.99
 21
-39.701
  0
LINE
  8
0
 10
-58.99
 20
-39.701
 11
-57.5672
 21
-39.0158
  0
LINE
  8
0
 10
-57.5672
 20
-39.0158
 11
-56.5825
 21
-37.7811
  0
LINE
  8
0
 10
-56.5825
 20
-37.7811
 11
-56.5641
 21
-37.758
  0
LINE
  8
0
 10
-56.5641
 20
-37.758
 11
-56.5575
 21
-37.7291
  0
LINE
  8
0
 10
-56.5575
 20
-37.7291
 11
-56.2061
 21
-36.1895
  0
LINE
  8
0
 10
-56.2061
 20
-36.1895
 11
-56.5575
 21
-34.6498
  0
LINE
  8
0
 10
-56.5575
 20
-34.6498
 11
-56.5641
 21
-34.6209
  0
LINE
  8
0
 10
-56.5641
 20
-34.6209
 11
-56.5825
 21
-34.5978
  0
LINE
  8
0
 10
-56.5825
 20
-34.5978
 11
-56.6059
 21
-34.5685
  0
LINE
  8
0
 10
-56.6059
 20
-34.5685
 11
-55.4121
 21
-33.9673
  0
LINE
  8
0
 10
-55.4121
 20
-33.9673
 11
-53.4527
 21
-32.9805
  0
LINE
  8
0
 10
-53.4527
 20
-32.9805
 11
-53.4364
 21
-32.9701
  0
LINE
  8
0
 10
-53.4364
 20
-32.9701
 11
-53.3871
 21
-32.939
  0
LINE
  8
0
 10
-53.3871
 20
-32.939
 11
-45.1076
 21
-27.6193
  0
LINE
  8
0
 10
-45.1076
 20
-27.6193
 11
-42.355
 21
-25.8508
  0
LINE
  8
0
 10
-42.355
 20
-25.8508
 11
-42.355
 21
-25.8508
  0
LINE
  8
0
 10
-42.355
 20
-25.8508
 11
-42.2236
 21
-25.56
  0
LINE
  8
0
 10
-42.2236
 20
-25.56
 11
-41.7785
 21
-24.5754
  0
LINE
  8
0
 10
-41.7785
 20
-24.5754
 11
-41.8182
 21
-24.5255
  0
LINE
  8
0
 10
-41.8182
 20
-24.5255
 11
-42.1761
 21
-24.0759
  0
LINE
  8
0
 10
-42.1761
 20
-24.0759
 11
-43.3331
 21
-22.6223
  0
LINE
  8
0
 10
-43.3331
 20
-22.6223
 11
-43.373
 21
-22.5722
  0
LINE
  8
0
 10
-43.373
 20
-22.5722
 11
-43.3878
 21
-22.5815
  0
LINE
  8
0
 10
-43.3878
 20
-22.5815
 11
-43.3878
 21
-22.5815
  0
LINE
  8
0
 10
-43.3878
 20
-22.5815
 11
-43.4387
 21
-22.6137
  0
LINE
  8
0
 10
-43.4387
 20
-22.6137
 11
-51.9938
 21
-28.1105
  0
LINE
  8
0
 10
-51.9938
 20
-28.1105
 11
-51.994
 21
-28.1106
  0
LINE
  8
0
 10
-51.994
 20
-28.1106
 11
-54.411
 21
-29.6635
  0
LINE
  8
0
 10
-54.411
 20
-29.6635
 11
-56.1508
 21
-30.5817
  0
LINE
  8
0
 10
-56.1508
 20
-30.5817
 11
-52.4697
 21
-25.7544
  0
LINE
  8
0
 10
-52.4697
 20
-25.7544
 11
-52.4697
 21
-25.6694
  0
LINE
  8
0
 10
-52.4697
 20
-25.6694
 11
-52.9037
 21
-23.5849
  0
LINE
  8
0
 10
-52.9037
 20
-23.5849
 11
-55.3762
 21
-11.7117
  0
LINE
  8
0
 10
-55.3762
 20
-11.7117
 11
-55.7704
 21
-7.8589
  0
LINE
  8
0
 10
-55.7704
 20
-7.8589
 11
-55.8396
 21
-7.1825
  0
LINE
  8
0
 10
-55.8396
 20
-7.1825
 11
-55.8396
 21
7.1825
  0
LINE
  8
0
 10
-55.8396
 20
7.1825
 11
-55.7704
 21
7.8589
  0
LINE
  8
0
 10
-55.7704
 20
7.8589
 11
-55.3762
 21
11.7117
  0
LINE
  8
0
 10
-55.3762
 20
11.7117
 11
-52.9037
 21
23.5849
  0
LINE
  8
0
 10
-52.9037
 20
23.5849
 11
-52.4697
 21
25.6694
  0
LINE
  8
0
 10
-52.4697
 20
25.6694
 11
-52.2783
 21
26.2639
  0
LINE
  8
0
 10
-52.2783
 20
26.2639
 11
-51.1111
 21
29.8899
  0
LINE
  8
0
 10
-51.1111
 20
29.8899
 11
-50.375
 21
31.5304
  0
LINE
  8
0
 10
-50.375
 20
31.5304
 11
-49.7388
 21
32.9483
  0
LINE
  8
0
 10
-49.7388
 20
32.9483
 11
-49.1773
 21
32.6779
  0
LINE
  8
0
 10
-49.1773
 20
32.6779
 11
-49.1506
 21
32.665
  0
LINE
  8
0
 10
-49.1506
 20
32.665
 11
-47.5417
 21
32.665
  0
LINE
  8
0
 10
-47.5417
 20
32.665
 11
-47.515
 21
32.6779
  0
LINE
  8
0
 10
-47.515
 20
32.6779
 11
-46.0922
 21
33.3631
  0
LINE
  8
0
 10
-46.0922
 20
33.3631
 11
-45.1075
 21
34.5978
  0
LINE
  8
0
 10
-45.1075
 20
34.5978
 11
-45.0891
 21
34.6209
  0
LINE
  8
0
 10
-45.0891
 20
34.6209
 11
-45.0825
 21
34.6498
  0
LINE
  8
0
 10
-45.0825
 20
34.6498
 11
-44.7311
 21
36.1895
  0
LINE
  8
0
 10
-44.7311
 20
36.1895
 11
-45.0825
 21
37.7291
  0
LINE
  8
0
 10
-45.0825
 20
37.7291
 11
-45.0891
 21
37.758
  0
LINE
  8
0
 10
-45.0891
 20
37.758
 11
-45.1075
 21
37.7811
  0
LINE
  8
0
 10
-45.1075
 20
37.7811
 11
-46.0922
 21
39.0158
  0
LINE
  8
0
 10
-46.0922
 20
39.0158
 11
-46.8522
 21
39.3818
  0
LINE
  8
0
 10
-46.8522
 20
39.3818
 11
-45.4962
 21
42.404
  0
LINE
  8
0
 10
-45.4962
 20
42.404
 11
-41.2462
 21
46.654
  0
LINE
  8
0
 10
-41.2462
 20
46.654
 11
-34.1845
 21
47.4247
  0
LINE
  8
0
 10
-34.1845
 20
47.4247
 11
-33.1191
 21
47.541
  0
LINE
  8
0
 10
-33.1191
 20
47.541
 11
-25.1699
 21
47.541
  0
LINE
  8
0
 10
-25.1699
 20
47.541
 11
-25.1645
 21
47.541
  0
LINE
  8
0
 10
-25.1645
 20
47.541
 11
-24.0865
 21
47.541
  0
LINE
  8
0
 10
-24.0865
 20
47.541
 11
-22.7728
 21
47.541
  0
LINE
  8
0
 10
-22.7728
 20
47.541
 11
-22.5554
 21
47.541
  0
LINE
  8
0
 10
-22.5554
 20
47.541
 11
-14.0378
 21
47.541
  0
LINE
  8
0
 10
-14.0378
 20
47.541
 11
-12.5687
 21
47.541
  0
LINE
  8
0
 10
-12.5687
 20
47.541
 11
-11.8147
 21
49.3565
  0
LINE
  8
0
 10
-11.8147
 20
49.3565
 11
-11.6515
 21
49.7493
  0
LINE
  8
0
 10
-11.6515
 20
49.7493
 11
-11.6462
 21
49.7622
  0
LINE
  8
0
 10
-11.6462
 20
49.7622
 11
-11.621
 21
49.823
  0
LINE
  8
0
 10
-11.621
 20
49.823
 11
-11.6524
 21
49.938
  0
LINE
  8
0
 10
-11.6524
 20
49.938
 11
-4.44515
 21
49.938
  0
LINE
  8
0
 10
-4.44515
 20
49.938
 11
-2.36378
 21
49.938
  0
LINE
  8
0
 10
-2.36378
 20
49.938
 11
-1.39406
 21
49.3643
  0
LINE
  8
0
 10
-1.39406
 20
49.3643
 11
1.68762
 21
47.541
  0
LINE
  8
0
 10
1.68762
 20
47.541
 11
2.78461
 21
47.541
  0
LINE
  8
0
 10
2.78461
 20
47.541
 11
2.7863
 21
47.5336
  0
LINE
  8
0
 10
2.7863
 20
47.5336
 11
2.80477
 21
47.5104
  0
LINE
  8
0
 10
2.80477
 20
47.5104
 11
3.78941
 21
46.2757
  0
LINE
  8
0
 10
3.78941
 20
46.2757
 11
5.21225
 21
45.5905
  0
LINE
  8
0
 10
5.21225
 20
45.5905
 11
5.23894
 21
45.5777
  0
LINE
  8
0
 10
5.23894
 20
45.5777
 11
6.84779
 21
45.5777
  0
LINE
  8
0
 10
6.84779
 20
45.5777
 11
6.87448
 21
45.5905
  0
LINE
  8
0
 10
6.87448
 20
45.5905
 11
8.29732
 21
46.2757
  0
LINE
  8
0
 10
8.29732
 20
46.2757
 11
9.28196
 21
47.5104
  0
LINE
  8
0
 10
9.28196
 20
47.5104
 11
9.30043
 21
47.5336
  0
LINE
  8
0
 10
9.30043
 20
47.5336
 11
9.30212
 21
47.541
  0
LINE
  8
0
 10
9.30212
 20
47.541
 11
10.5798
 21
47.541
  0
LINE
  8
0
 10
10.5798
 20
47.541
 11
12.5861
 21
47.541
  0
LINE
  8
0
 10
12.5861
 20
47.541
 11
15.3827
 21
42.2844
  0
LINE
  8
0
 10
15.3827
 20
42.2844
 11
17.2213
 21
38.8285
  0
LINE
  8
0
 10
17.2213
 20
38.8285
 11
17.5922
 21
38.4127
  0
LINE
  8
0
 10
17.5922
 20
38.4127
 11
18.5483
 21
37.341
  0
LINE
  8
0
 10
18.5483
 20
37.341
 11
27.4722
 21
37.341
  0
LINE
  8
0
 10
27.4722
 20
37.341
 11
30.9075
 21
37.341
  0
LINE
  8
0
 10
30.9075
 20
37.341
 11
32.5051
 21
37.341
  0
LINE
  8
0
 10
32.5051
 20
37.341
 11
33.4345
 21
37.341
  0
LINE
  8
0
 10
33.4345
 20
37.341
 11
39.7646
 21
37.341
  0
LINE
  8
0
 10
39.7646
 20
37.341
 11
39.8764
 21
36.8509
  0
LINE
  8
0
 10
39.8764
 20
36.8509
 11
39.883
 21
36.8221
  0
LINE
  8
0
 10
39.883
 20
36.8221
 11
39.9015
 21
36.7989
  0
LINE
  8
0
 10
39.9015
 20
36.7989
 11
40.8861
 21
35.5642
  0
LINE
  8
0
 10
40.8861
 20
35.5642
 11
42.309
 21
34.879
  0
LINE
  8
0
 10
42.309
 20
34.879
 11
42.3356
 21
34.8662
  0
LINE
  8
0
 10
42.3356
 20
34.8662
 11
43.9445
 21
34.8662
  0
LINE
  8
0
 10
43.9445
 20
34.8662
 11
43.9712
 21
34.879
  0
LINE
  8
0
 10
43.9712
 20
34.879
 11
45.0115
 21
35.38
  0
LINE
  8
0
 10
45.0115
 20
35.38
 11
45.0009
 21
35.1479
  0
LINE
  8
0
 10
45.0009
 20
35.1479
 11
44.0258
 21
29.0903
  0
LINE
  8
0
 10
44.0258
 20
29.0903
 11
43.224
 21
20.7827
  0
LINE
  8
0
 10
43.224
 20
20.7827
 11
43.6521
 21
17.9258
  0
LINE
  8
0
 10
43.6521
 20
17.9258
 11
44.1429
 21
16.6807
  0
LINE
  8
0
 10
44.1429
 20
16.6807
 11
43.8769
 21
9.77919
  0
LINE
  8
0
 10
43.8769
 20
9.77919
 11
43.8729
 21
9.67561
  0
LINE
  8
0
 10
43.8729
 20
9.67561
 11
43.8234
 21
1.84651
  0
LINE
  8
0
 10
43.8234
 20
1.84651
 11
43.7761
 21
0.785181
  0
LINE
  8
0
 10
43.7761
 20
0.785181
 11
43.6086
 21
-2.975
  0
LINE
  8
0
 10
43.6086
 20
-2.975
 11
43.6086
 21
-17.425
  0
LINE
  8
0
 10
43.6086
 20
-17.425
 11
43.7761
 21
-21.1852
  0
LINE
  8
0
 10
43.7761
 20
-21.1852
 11
43.8234
 21
-22.2465
  0
LINE
  8
0
 10
43.8234
 20
-22.2465
 11
43.8729
 21
-30.0756
  0
LINE
  8
0
 10
43.8729
 20
-30.0756
 11
43.8769
 21
-30.1792
  0
LINE
  8
0
 10
43.8769
 20
-30.1792
 11
44.1429
 21
-37.0807
  0
LINE
  8
0
 10
44.1429
 20
-37.0807
 11
43.5983
 21
-40.5041
  0
LINE
  8
0
 10
43.5983
 20
-40.5041
 11
43.5845
 21
-40.7049
  0
LINE
  8
0
 10
43.5845
 20
-40.7049
 11
42.6676
 21
-40.7049
  0
LINE
  8
0
 10
42.6676
 20
-40.7049
 11
42.3892
 21
-39.4855
  0
LINE
  8
0
 10
42.3892
 20
-39.4855
 11
42.3827
 21
-39.4567
  0
LINE
  8
0
 10
42.3827
 20
-39.4567
 11
42.3642
 21
-39.4335
  0
LINE
  8
0
 10
42.3642
 20
-39.4335
 11
41.3796
 21
-38.1988
  0
LINE
  8
0
 10
41.3796
 20
-38.1988
 11
39.9567
 21
-37.5136
  0
LINE
  8
0
 10
39.9567
 20
-37.5136
 11
39.93
 21
-37.5008
  0
LINE
  8
0
 10
39.93
 20
-37.5008
 11
38.3212
 21
-37.5008
  0
LINE
  8
0
 10
38.3212
 20
-37.5008
 11
38.2945
 21
-37.5136
  0
LINE
  8
0
 10
38.2945
 20
-37.5136
 11
36.8716
 21
-38.1988
  0
LINE
  8
0
 10
36.8716
 20
-38.1988
 11
35.887
 21
-39.4335
  0
LINE
  8
0
 10
35.887
 20
-39.4335
 11
35.8685
 21
-39.4567
  0
LINE
  8
0
 10
35.8685
 20
-39.4567
 11
35.8619
 21
-39.4855
  0
LINE
  8
0
 10
35.8619
 20
-39.4855
 11
35.5836
 21
-40.7049
  0
LINE
  8
0
 10
35.5836
 20
-40.7049
 11
28.6153
 21
-40.7049
  0
LINE
  8
0
 10
28.6153
 20
-40.7049
 11
25.5855
 21
-40.7049
  0
LINE
  8
0
 10
25.5855
 20
-40.7049
 11
20.788
 21
-40.7049
  0
LINE
  8
0
 10
20.788
 20
-40.7049
 11
13.2563
 21
-40.7049
  0
LINE
  8
0
 10
13.2563
 20
-40.7049
 11
12.3563
 21
-41.1731
  0
LINE
  8
0
 10
12.3563
 20
-41.1731
 11
11.7763
 21
-41.4749
  0
LINE
  8
0
 10
11.7763
 20
-41.4749
 11
11.9661
 21
-42.8504
  0
LINE
  8
0
 10
11.9661
 20
-42.8504
 11
12.121
 21
-43.9732
  0
LINE
  8
0
 10
12.121
 20
-43.9732
 11
12.1275
 21
-44.0201
  0
LINE
  8
0
 10
12.1275
 20
-44.0201
 11
12.1275
 21
-44.0201
  0
LINE
  8
0
 10
12.1275
 20
-44.0201
 11
12.1588
 21
-44.0201
  0
LINE
  8
0
 10
12.1588
 20
-44.0201
 11
14.7772
 21
-44.0201
  0
LINE
  8
0
 10
14.7772
 20
-44.0201
 11
14.462
 21
-45.2697
  0
LINE
  8
0
 10
14.462
 20
-45.2697
 11
13.8891
 21
-47.541
  0
LINE
  8
0
 10
13.8891
 20
-47.541
 11
11.8875
 21
-47.541
  0
LINE
  8
0
 10
11.8875
 20
-47.541
 11
1.75638
 21
-47.541
  0
LINE
  8
0
 10
1.75638
 20
-47.541
 11
-8.0875
 21
-44.1079
  0
LINE
  8
0
 10
-8.0875
 20
-44.1079
 11
-11.1908
 21
-43.0257
  0
LINE
  8
0
 10
-11.1908
 20
-43.0257
 11
-11.2487
 21
-43.0287
  0
LINE
  8
0
 10
-11.2487
 20
-43.0287
 11
-11.2643
 21
-43.0295
  0
LINE
  8
0
 10
-11.2643
 20
-43.0295
 11
-16.7715
 21
-43.3584
  0
LINE
  8
0
 10
-16.7715
 20
-43.3584
 11
-17.1564
 21
-42.8757
  0
LINE
  8
0
 10
-17.1564
 20
-42.8757
 11
-18.5792
 21
-42.1905
  0
LINE
  8
0
 10
-18.5792
 20
-42.1905
 11
-18.6059
 21
-42.1777
  0
LINE
  8
0
 10
-18.6059
 20
-42.1777
 11
-20.2148
 21
-42.1777
  0
LINE
  8
0
 10
-20.2148
 20
-42.1777
 11
-20.2415
 21
-42.1905
  0
LINE
  8
0
 10
-20.2415
 20
-42.1905
 11
-21.6643
 21
-42.8757
  0
LINE
  8
0
 10
-21.6643
 20
-42.8757
 11
-22.3131
 21
-43.6893
  0
LINE
  8
0
 10
-22.3131
 20
-43.6893
 11
-23.5886
 21
-43.7654
  0
LINE
  8
0
 10
-23.5886
 20
-43.7654
 11
-23.5979
 21
-43.7332
  0
LINE
  8
0
 10
-23.5979
 20
-43.7332
 11
-23.6142
 21
-43.6768
  0
LINE
  8
0
 10
-23.6142
 20
-43.6768
 11
-24.7795
 21
-43.2021
  0
LINE
  8
0
 10
-24.7795
 20
-43.2021
 11
-27.9937
 21
-41.8929
  0
LINE
  8
0
 10
-27.9937
 20
-41.8929
 11
-28.0541
 21
-41.8171
  0
LINE
  8
0
 10
-28.0541
 20
-41.8171
 11
-28.1023
 21
-41.8475
  0
LINE
  8
0
 10
-28.1023
 20
-41.8475
 11
-28.1198
 21
-41.8585
  0
LINE
  8
0
 10
-28.1198
 20
-41.8585
 11
-36.2154
 21
-47.0601
  0
LINE
  8
0
 10
-36.2154
 20
-47.0601
 11
-39.0865
 21
-48.9048
  0
LINE
  8
0
 10
-39.0865
 20
-48.9048
 11
-39.1466
 21
-48.8294
  0
LINE
  8
0
 10
-39.1466
 20
-48.8294
 11
-40.1696
 21
-48.7394
  0
LINE
  8
0
 10
-40.1696
 20
-48.7394
 11
-42.1944
 21
-48.5612
  0
LINE
  8
0
 10
-42.1944
 20
-48.5612
 11
-45.7241
 21
-52.9201
  0
LINE
  8
0
 10
-45.7241
 20
-52.9201
 11
-45.7243
 21
-52.9203
  0
LINE
  8
0
 10
-45.7243
 20
-52.9203
 11
-49.4327
 21
-57.4999
  0
LINE
  8
0
 10
-49.4327
 20
-57.4999
 11
-51.6073
 21
-58.6054
  0
LINE
  8
0
 10
-51.6073
 20
-58.6054
 11
-53.0654
 21
-59.3466
  0
LINE
  8
0
 10
-53.0654
 20
-59.3466
 11
-55.6551
 21
-66.4618
  0
LINE
  8
0
 10
-55.6551
 20
-66.4618
 11
-57.7882
 21
-72.3224
  0
LINE
  8
0
 10
-57.7882
 20
-72.3224
 11
-61.0519
 21
-73.8225
  0
LINE
  8
0
 10
-61.0519
 20
-73.8225
 11
-61.052
 21
-73.8225
  0
LINE
  8
0
 10
-61.052
 20
-73.8225
 11
-63.1989
 21
-74.8092
  0
LINE
  8
0
 10
-63.1989
 20
-74.8092
 11
-63.1989
 21
-74.8092
  0
LINE
  8
0
 10
-63.1989
 20
-74.8092
 11
-70.7434
 21
-72.2675
  0
LINE
  8
0
 10
-70.7434
 20
-72.2675
 11
-76.6839
 21
-70.2662
  0
LINE
  8
0
 10
-76.6839
 20
-70.2662
 11
-77.8444
 21
-67.9635
  0
LINE
  8
0
 10
-77.8444
 20
-67.9635
 11
-79.1399
 21
-65.393
  0
ENDSEC
  0
SECTION
  2
OBJECTS
  0
DICTIONARY
  0
ENDSEC
  0
EOF
